Coordinates
version=1
nRows=14
nColumns=36
inDegrees=yes

Units are S.I. units (second, meters, Newtons, ...)
If the header above contains a line with 'inDegrees', this indicates whether rotational values are in degrees (yes) or radians (no).

endheader
time	pelvis_tilt	pelvis_list	pelvis_rotation	pelvis_tx	pelvis_ty	pelvis_tz	hip_flexion_r	hip_adduction_r	hip_rotation_r	knee_angle_r	knee_angle_r_beta	ankle_angle_r	subtalar_angle_r	mtp_angle_r	hip_flexion_l	hip_adduction_l	hip_rotation_l	knee_angle_l	knee_angle_l_beta	ankle_angle_l	subtalar_angle_l	mtp_angle_l	lumbar_extension	lumbar_bending	lumbar_rotation	arm_flex_r	arm_add_r	arm_rot_r	elbow_flex_r	pro_sup_r	arm_flex_l	arm_add_l	arm_rot_l	elbow_flex_l	pro_sup_l
      2.32916670	     -1.80476483	     -1.13253028	      1.59803067	      0.16756425	      0.93032321	     -0.12162739	     12.35201417	     -0.88688082	     10.43183266	     18.06131520	      0.31522942	     10.87412191	    -24.96271034	     -7.49999987	     11.17677874	     -2.76447433	     10.28083165	     23.08899615	      0.40297900	     13.83028165	    -24.05408788	     -7.49999987	     -5.16447733	      0.51926648	     -7.61227776	      6.50009938	     -8.87007216	    -12.95587656	     77.50420848	     72.70575154	      3.74694415	     -6.72995123	     23.79822536	     69.41244221	     76.55703788
      2.33333330	     -1.45479694	     -1.08830575	      1.63791057	      0.16699739	      0.92874296	     -0.12204309	     11.78390562	     -1.00041659	     10.19965965	     17.68890599	      0.30872965	     10.74695089	    -24.65107874	     -7.49999987	     10.52652327	     -2.68466630	     10.39608427	     22.52300040	      0.39310051	     13.35930287	    -24.87359312	     -7.49999987	     -5.60416455	      0.42572904	     -7.48142120	      6.58967869	     -8.90898571	    -13.16761935	     77.44130812	     72.10259118	      3.79175357	     -6.70286436	     23.69419696	     69.34780882	     75.77295187
      2.33750000	     -1.43784426	     -1.10273672	      1.52546966	      0.16275411	      0.92859533	     -0.11695014	     11.66848903	     -0.95228635	     10.01045764	     17.16010278	      0.29950029	     10.96624112	    -24.63383283	     -7.49999987	     10.46837194	     -2.81652053	     10.36143191	     22.34229423	      0.38994660	     13.51096551	    -25.14369738	     -7.49999987	     -5.62545084	      0.21188501	     -7.32133311	      6.44521322	     -8.91877748	    -13.20057347	     77.37796428	     72.13153964	      3.78991908	     -6.85768798	     23.55173027	     69.36737939	     75.79052291
      2.34166670	     -1.22225000	     -1.07892753	      1.64338953	      0.16217334	      0.93245974	     -0.11739305	     11.24166238	     -0.98333880	      9.73470120	     16.59161728	      0.28957835	     10.93789110	    -24.53284729	     -7.49999987	     10.03849967	     -2.86188370	     10.50136384	     21.72596314	      0.37918959	     12.99739926	    -25.62790068	     -7.49999987	     -5.89706162	     -0.02801171	     -7.32091756	      6.29214938	     -8.70166340	    -13.06677206	     77.22197781	     70.46136854	      3.85826204	     -6.92488733	     23.48605413	     69.10279919	     73.57086251
      2.34583330	     -1.31999454	     -1.11126095	      1.82144064	      0.16243294	      0.92916260	     -0.11741839	     11.10408803	     -0.95133311	      9.35650447	     16.07349157	      0.28053535	     11.18594296	    -24.09414048	     -7.49999987	     10.16144642	     -2.94951576	     10.51916669	     21.47444493	      0.37479977	     13.45147625	    -24.98510876	     -7.49999987	     -5.82357923	     -0.17342131	     -7.38674553	      6.04872585	     -8.49961705	    -13.06413620	     77.31069667	     70.41453588	      3.82912096	     -7.05806476	     23.38605426	     69.02150625	     73.47147194
      2.35000000	     -1.01439203	     -1.10176889	      1.88907481	      0.16154120	      0.92689944	     -0.11758621	     10.66938978	     -0.92173668	      9.27718879	     15.76269305	      0.27511089	     10.80995242	    -24.56943403	     -7.49999987	      9.70745910	     -2.96701471	     10.64552773	     20.99178850	      0.36637583	     13.39004774	    -24.99914651	     -7.49999987	     -6.27302595	     -0.34359105	     -7.41958041	      5.97218305	     -8.38614232	    -12.89055309	     77.57506016	     70.02683027	      4.04834972	     -7.15168402	     23.24652186	     69.01449080	     72.87203488
      2.35416670	     -0.88068710	     -1.07392681	      1.99446388	      0.16174948	      0.93029303	     -0.11760315	     10.35087371	     -0.99435535	      9.14688139	     15.33521491	      0.26764999	     10.60861859	    -24.60721423	     -7.49999987	      9.39645636	     -2.98749132	     10.88466596	     20.48187322	      0.35747612	     13.12193811	    -24.67829000	     -7.49999987	     -6.43318250	     -0.53825200	     -7.54780116	      5.59307688	     -8.08135567	    -12.70137996	     77.84670296	     70.18263088	      4.00266029	     -7.34513927	     23.17675324	     69.03568984	     72.86694155
      2.35833330	     -0.88063336	     -1.05723839	      2.13751742	      0.16140577	      0.93084141	     -0.11803931	     10.21017686	     -1.15277104	      8.91145280	     14.88703399	      0.25982776	     10.26908650	    -24.81496368	     -7.49999987	      9.24698219	     -2.93935511	     11.17958352	     20.11753665	      0.35111725	     12.88149730	    -24.60218920	     -7.49999987	     -6.47593363	     -0.56704793	     -7.67701116	      5.41208087	     -8.08845967	    -12.76175275	     77.82492206	     70.14686709	      4.00737938	     -7.32982359	     23.04759219	     68.81803908	     72.80027932
      2.36250000	     -0.83448919	     -1.03982346	      2.25393857	      0.16160418	      0.93038334	     -0.11785537	     10.01341047	     -1.24210274	      8.86223418	     14.47857956	      0.25269888	     10.04989094	    -25.12285386	     -7.49999987	      9.06754499	     -2.91056524	     11.42641156	     19.83874506	      0.34625142	     12.60720811	    -24.45771532	     -7.49999987	     -6.62999430	     -0.65669409	     -7.71583025	      5.07101628	     -7.88319124	    -13.09177884	     77.99178148	     70.35847826	      3.99531143	     -7.42153251	     22.80934611	     68.55921587	     72.95554142
      2.36666670	     -0.72386765	     -1.08979717	      2.32043887	      0.16126792	      0.92812875	     -0.11841005	      9.84057310	     -1.26191349	      8.74737321	     14.27414797	      0.24913088	      9.78739808	    -25.34319662	     -7.49999987	      8.90954387	     -2.96196114	     11.57296193	     19.76157013	      0.34490446	     12.44691651	    -24.30888232	     -7.49999987	     -6.84963840	     -0.62764385	     -7.73659258	      5.02614652	     -7.97417496	    -13.17396749	     77.82789176	     70.27421810	      4.04384421	     -7.34968782	     22.76650439	     68.38216543	     72.84809037
      2.37083330	     -0.68065394	     -1.12061080	      2.32781839	      0.16144239	      0.92797568	     -0.11821312	      9.76711844	     -1.23476300	      8.67465570	     14.12648827	      0.24655373	      9.66427548	    -25.45384040	     -7.49999987	      8.86414731	     -2.99722433	     11.66535040	     19.81656720	      0.34586434	     12.33020159	    -24.06360687	     -7.49999987	     -6.89689260	     -0.65422015	     -7.69414852	      4.94704379	     -7.95126836	    -13.22686879	     77.57553708	     69.68769010	      4.04903315	     -7.35145622	     22.56133883	     67.94704821	     72.12728307
      2.37500000	     -0.87391461	     -1.15929084	      2.32498897	      0.16118836	      0.92817570	     -0.11857856	      9.99979736	     -1.26704772	      8.83694483	     13.96017280	      0.24365098	      9.31176475	    -25.80477314	     -7.49999987	      9.08174376	     -3.02729256	     11.85837927	     19.79752682	      0.34553203	     12.00242645	    -24.10977947	     -7.49999987	     -6.62438038	     -0.62322383	     -7.76724187	      4.59694322	     -7.85000879	    -13.29246558	     77.68179025	     69.30224035	      3.79479130	     -7.41105292	     22.29850007	     67.76578627	     71.62221914
      2.37916670	     -0.78564956	     -1.12806433	      2.22467775	      0.16123522	      0.92460470	     -0.11799584	      9.93772604	     -1.34207305	      8.93453714	     13.87985957	      0.24224925	      9.29397102	    -25.82755217	     -7.49999987	      8.88637585	     -3.00469065	     11.85869471	     19.47978334	      0.33998636	     11.89683188	    -23.72956668	     -7.49999987	     -6.78610980	     -0.55979123	     -7.73291105	      4.53125146	     -7.76331413	    -13.49213037	     77.96546234	     69.52116790	      3.80108750	     -7.33296222	     21.87784833	     67.50317516	     71.86151805
      2.38333330	     -0.85390700	     -1.12404296	      2.25560152	      0.16095503	      0.92545039	     -0.11834122	      9.99650247	     -1.40819742	      9.00585077	     13.75116622	      0.24000313	      8.96187062	    -26.17284061	     -7.49999987	      8.75035901	     -2.98582529	     12.21686543	     18.97030334	      0.33109425	     11.58224102	    -23.62745061	     -7.49999987	     -6.68016072	     -0.51562115	     -7.82847917	      4.41517489	     -7.64850600	    -13.60708086	     78.10016699	     69.66447208	      3.69451074	     -7.29956639	     21.84197396	     67.22886261	     72.04603631
